# xmcd
#
# Track frame offsets:
#	183
#	16748
#	28065
#	50558
#	72885
#	88758
#	106320
#	125720
#	148898
#	167368
#	181180
#	194718
#	212000
#	231788
#	245680
#	264455
#	290283
#	311070
#
# Disc length: 4421 seconds
#
# Revision: 1
# Processed by: cddbd v1.4b42PL1 Copyright (c) Steve Scherf et al.
# Submitted via: audiograbber 1.80
#
DISCID=0a114312
DTITLE=Rui Veloso - Auto da Pimenta
DYEAR=1900
DGENRE=
TTITLE0=Sete Partidas (Cantiga de Amigo)
TTITLE1=S. Miguel
TTITLE2=Cabo Sim Cabo Não
TTITLE3=Lançada
TTITLE4=Canção de Marinhar
TTITLE5=Cruzeiro do Sul
TTITLE6=Faena de Mar
TTITLE7=Calmaria
TTITLE8=Praia das Lágrimas
TTITLE9=Mulher d`Armas
TTITLE10=Trovas Vincentinas
TTITLE11=Pais do Gelo
TTITLE12=Nativa
TTITLE13=O Ourives Mestre João
TTITLE14=À Sombra da Tamareira
TTITLE15=Logo que Passe a Monção
TTITLE16=Memorial
TTITLE17=Brizas do Restelo
EXTD=
EXTT0=
EXTT1=
EXTT2=
EXTT3=
EXTT4=
EXTT5=
EXTT6=
EXTT7=
EXTT8=
EXTT9=
EXTT10=
EXTT11=
EXTT12=
EXTT13=
EXTT14=
EXTT15=
EXTT16=
EXTT17=
PLAYORDER=
